 <svg  version="1.0" xmlns="http://www.w3.org/2000/svg"  width="300.000000pt" height="300.000000pt" viewBox="0 0 300.000000 300.000000"  preserveAspectRatio="xMidYMid meet">  <g transform="translate(0.000000,300.000000) scale(0.100000,-0.100000)" fill="#161717" stroke="none"> <path d="M1346 2990 c-340 -33 -648 -181 -902 -434 -225 -226 -366 -493 -420 -796 -23 -129 -23 -391 0 -520 54 -303 195 -570 420 -796 181 -180 351 -286 585 -364 166 -56 275 -73 471 -73 196 0 303 16 471 73 234 78 404 184 585 364 225 226 366 493 420 796 23 129 23 391 0 520 -21 118 -82 302 -134 407 -141 280 -395 534 -675 675 -103 51 -289 113 -397 132 -111 19 -312 27 -424 16z m334 -24 c246 -33 450 -111 655 -249 117 -79 303 -265 382 -382 347 -514 347 -1156 0 -1670 -79 -117 -265 -303 -382 -382 -514 -347 -1156 -347 -1670 0 -117 79 -303 265 -382 382 -348 515 -348 1155 0 1670 79 117 265 303 382 382 307 207 666 295 1015 249z"/> <path d="M1347 2909 c-312 -33 -622 -182 -847 -409 -555 -556 -555 -1446 0 -2000 554 -555 1445 -555 2000 0 295 294 450 715 411 1119 -75 798 -773 1374 -1564 1290z m384 -35 c583 -99 1044 -560 1143 -1143 21 -123 21 -339 0 -462 -99 -583 -560 -1044 -1143 -1143 -123 -21 -339 -21 -462 0 -583 99 -1044 560 -1143 1143 -21 123 -21 339 0 462 99 580 558 1041 1139 1143 112 20 350 20 466 0z"/> <path d="M1400 2683 l0 -103 60 0 c57 0 60 1 60 25 0 22 -4 25 -35 25 -24 0 -35 5 -35 15 0 10 11 15 35 15 30 0 35 3 35 24 0 23 -3 24 -35 19 -31 -5 -35 -3 -35 16 0 17 6 21 35 21 30 0 35 3 35 23 0 20 -4 22 -60 22 l-60 0 0 -102z"/> <path d="M1576 2718 c-4 -35 -10 -79 -13 -99 l-5 -36 56 -7 c90 -10 136 23 136 98 0 46 -34 84 -85 96 -79 19 -82 17 -89 -52z m106 -5 c22 -20 23 -42 2 -71 -19 -27 -64 -30 -64 -4 1 82 23 110 62 75z"/> <path d="M1258 2763 c-14 -3 -18 -18 -20 -76 l-3 -72 -33 63 c-33 63 -38 67 -66 56 -18 -7 -20 -42 -10 -143 6 -56 9 -61 30 -61 27 0 29 14 14 90 -4 25 -7 47 -5 49 2 1 18 -25 35 -59 43 -85 63 -80 70 15 l5 70 19 -55 c22 -67 28 -74 54 -66 19 6 18 10 -17 101 -20 52 -40 94 -46 94 -5 -1 -18 -3 -27 -6z"/> <path d="M970 2669 c-24 -11 -46 -21 -47 -23 -6 -6 76 -181 84 -179 24 5 103 43 103 50 0 4 -4 14 -9 21 -7 12 -14 11 -38 -2 -17 -8 -33 -12 -37 -9 -13 14 -5 30 24 44 28 13 29 16 17 33 -13 18 -15 18 -40 2 -24 -17 -26 -16 -36 3 -10 17 -7 21 25 31 25 8 34 16 30 27 -3 8 -6 17 -6 19 0 8 -26 2 -70 -17z"/> <path d="M1931 2676 c-58 -32 -69 -119 -22 -167 29 -28 91 -42 91 -20 0 5 3 16 6 25 5 12 -1 16 -23 16 -51 0 -69 42 -37 88 20 28 58 28 78 0 18 -25 21 -23 30 14 5 23 2 30 -23 43 -36 18 -68 19 -100 1z"/> <path d="M2072 2538 c-49 -76 -52 -83 -36 -95 25 -18 31 -17 51 17 20 35 29 36 62 11 l24 -18 -23 -33 c-23 -32 -23 -33 -5 -46 10 -8 21 -14 24 -14 3 0 30 37 60 82 50 76 52 82 35 95 -26 19 -32 17 -49 -17 -9 -16 -18 -30 -21 -30 -4 0 -36 18 -62 36 -2 1 7 17 20 34 23 31 23 32 4 46 -11 8 -22 14 -25 14 -3 0 -30 -37 -59 -82z"/> <path d="M808 2582 c-26 -15 -48 -30 -48 -34 0 -7 86 -148 99 -161 6 -6 108 47 105 56 0 1 -5 11 -11 21 -10 19 -11 19 -40 -2 -17 -12 -33 -19 -37 -15 -13 14 -5 34 19 45 28 12 29 16 15 38 -8 13 -13 13 -38 -2 -26 -15 -31 -16 -42 -4 -9 12 -5 18 20 31 21 11 30 21 26 31 -3 9 -6 18 -6 20 0 8 -16 2 -62 -24z"/> <path d="M656 2455 c-16 -8 -43 -28 -61 -43 l-32 -28 68 -75 69 -74 45 47 c35 36 45 54 45 80 0 43 -24 76 -66 94 -40 17 -33 17 -68 -1z m67 -63 c21 -19 22 -55 1 -73 -13 -11 -21 -6 -56 28 l-41 41 29 15 c30 16 37 14 67 -11z"/> <path d="M1391 2459 c-252 -30 -485 -160 -643 -358 -283 -353 -283 -849 0 -1202 387 -484 1117 -484 1504 0 367 458 243 1130 -264 1433 -172 102 -400 151 -597 127z m281 -33 c384 -74 680 -370 754 -754 18 -94 18 -250 0 -344 -74 -384 -370 -680 -754 -754 -94 -18 -250 -18 -344 0 -384 74 -680 370 -754 754 -18 94 -18 250 0 344 73 380 367 676 746 753 88 18 262 18 352 1z"/> <path d="M1370 2358 c-177 -25 -342 -111 -480 -248 -194 -194 -283 -446 -251 -708 25 -204 104 -364 251 -512 194 -194 446 -283 707 -251 205 25 365 104 513 251 147 148 226 308 251 513 32 261 -57 513 -251 707 -202 202 -459 288 -740 248z m330 -51 c150 -49 247 -99 335 -175 125 -107 212 -238 259 -393 45 -147 45 -242 0 -225 -7 3 -16 1 -19 -4 -7 -11 -50 -7 -85 8 -14 6 -52 18 -85 28 -33 9 -76 27 -95 39 -19 13 -51 26 -70 30 -19 4 -42 13 -50 20 -8 6 -36 18 -63 25 -26 7 -50 17 -53 22 -3 4 -10 6 -15 3 -24 -15 -18 33 15 115 35 87 35 92 20 116 -25 38 -39 41 -174 44 -314 6 -380 3 -401 -16 -28 -26 -24 -73 16 -155 33 -69 36 -89 14 -89 -5 0 -19 -9 -31 -20 -14 -12 -36 -20 -59 -20 -20 0 -47 -8 -60 -19 -13 -10 -38 -21 -55 -25 -18 -4 -40 -16 -50 -27 -9 -10 -29 -19 -44 -19 -14 0 -31 -5 -37 -11 -6 -6 -28 -11 -49 -11 -22 0 -51 -6 -66 -14 -40 -21 -117 -19 -125 3 -8 22 29 206 52 259 68 156 141 256 251 347 102 85 257 154 404 181 50 9 276 -3 320 -17z m-231 -380 c23 3 46 1 54 -5 10 -9 22 -9 44 0 24 9 36 8 60 -4 27 -13 33 -13 58 0 25 13 32 12 61 -1 l33 -16 -54 -126 -53 -125 66 0 c58 -1 65 -2 50 -14 -31 -23 -20 -29 44 -22 49 5 59 3 50 -6 -7 -7 -12 -18 -12 -26 0 -12 12 -14 67 -8 l67 7 -22 -24 c-12 -13 -22 -27 -22 -31 0 -4 33 -5 73 -2 63 6 70 5 55 -7 -31 -24 -20 -30 45 -23 50 6 60 5 50 -5 -7 -7 -13 -17 -13 -21 0 -13 53 -9 106 7 27 8 53 15 57 15 13 0 -120 -121 -197 -179 -39 -30 -100 -68 -136 -85 -57 -27 -76 -31 -151 -31 -77 0 -92 3 -149 33 -35 18 -64 31 -65 30 -1 -2 -11 -19 -23 -38 -12 -20 -39 -52 -62 -72 -22 -20 -40 -43 -40 -52 0 -28 -20 -27 -31 1 -6 15 -25 40 -44 56 -18 15 -44 44 -56 65 -12 20 -24 39 -26 41 -2 3 -13 -5 -26 -17 -61 -58 -173 -71 -276 -32 -33 12 -95 46 -137 75 -71 49 -256 206 -250 213 2 1 29 -4 62 -13 32 -8 72 -15 89 -15 l30 1 -30 24 c-26 22 -27 25 -10 25 11 0 45 -7 75 -15 30 -8 56 -15 58 -15 10 0 -2 31 -15 39 -17 10 -16 10 2 10 11 0 38 -4 59 -9 50 -11 61 -4 42 26 -9 13 -16 25 -16 27 0 3 21 0 47 -4 66 -13 80 -6 58 28 -16 23 -16 25 -1 20 9 -4 47 -10 84 -13 62 -7 66 -6 53 9 -7 10 -20 17 -27 17 -8 0 -14 5 -14 10 0 6 24 10 53 10 30 0 56 3 59 6 4 3 -16 53 -43 111 -27 58 -49 114 -49 124 0 26 25 34 69 23 25 -7 43 -6 60 2 15 8 32 9 46 4 12 -5 41 -6 64 -3z m-693 -582 c48 -42 113 -90 143 -107 31 -17 63 -37 71 -43 8 -7 45 -20 82 -30 80 -21 168 -16 226 14 l38 19 74 -74 c41 -41 80 -74 87 -74 13 0 119 107 136 136 11 19 26 18 83 -8 39 -17 68 -21 138 -21 86 1 92 2 180 47 92 47 129 73 221 159 29 26 55 47 58 47 13 0 7 -64 -14 -134 -24 -82 -89 -219 -121 -258 -13 -14 -40 -46 -60 -71 -21 -25 -74 -73 -120 -107 -250 -189 -565 -221 -858 -88 -114 52 -266 184 -334 290 -38 60 -86 162 -86 183 0 7 -4 16 -9 19 -4 3 -14 34 -20 68 -7 35 -14 73 -17 86 -2 12 0 22 5 22 5 0 48 -34 97 -75z"/> <path d="M2268 2396 c-66 -72 -67 -74 -48 -91 19 -17 20 -16 46 14 15 18 28 30 30 28 2 -2 -2 -22 -10 -44 -14 -39 -13 -42 8 -63 l23 -21 7 23 c3 13 6 33 6 46 0 16 5 23 18 21 39 -3 52 2 65 29 8 15 12 34 9 42 -5 16 -73 90 -82 90 -3 -1 -35 -34 -72 -74z m102 -22 c0 -18 -17 -26 -40 -19 -19 6 -19 7 -2 30 12 17 20 20 30 13 6 -6 12 -16 12 -24z"/> <path d="M480 2282 l-36 -46 79 -64 c44 -35 80 -62 81 -60 1 2 19 24 39 50 36 45 37 48 18 57 -16 9 -23 6 -40 -15 -18 -22 -23 -24 -36 -14 -14 12 -13 16 7 37 20 21 20 25 6 39 -14 14 -17 13 -36 -10 -13 -17 -26 -24 -36 -20 -21 8 -20 13 5 41 18 18 20 25 9 38 -18 21 -21 20 -60 -33z"/> <path d="M2411 2261 c-75 -60 -77 -64 -57 -93 10 -14 18 -11 66 29 30 25 65 53 78 63 20 16 21 21 10 39 -7 12 -15 21 -18 21 -3 0 -38 -27 -79 -59z"/> <path d="M2495 2180 c-15 -16 -16 -26 -7 -60 9 -35 8 -42 -5 -47 -20 -8 -42 22 -36 47 4 16 0 20 -21 20 -22 0 -26 -4 -26 -31 0 -36 47 -89 80 -89 11 0 32 11 45 24 21 21 23 28 14 60 -6 20 -7 41 -4 47 10 15 35 -9 35 -33 0 -14 6 -19 23 -16 49 7 0 98 -53 98 -15 0 -35 -9 -45 -20z"/> <path d="M402 2144 c-19 -13 -62 -82 -62 -99 0 -2 40 -25 89 -49 l88 -45 11 23 c9 21 6 25 -26 42 l-37 19 45 3 c27 2 50 9 58 19 21 29 14 36 -32 30 -42 -6 -44 -5 -49 21 -4 17 -16 33 -32 40 -32 15 -26 15 -53 -4z m51 -57 c9 -23 -8 -40 -32 -32 -21 6 -28 25 -14 38 11 12 41 8 46 -6z"/> <path d="M2621 2061 c-10 -6 -10 -13 -2 -28 9 -18 4 -23 -59 -51 -39 -17 -70 -35 -70 -40 0 -4 6 -16 13 -25 11 -16 17 -15 75 13 74 36 78 36 85 9 5 -18 9 -19 27 -9 12 6 20 15 18 19 -30 72 -55 121 -63 121 -5 0 -16 -4 -24 -9z"/> <path d="M263 1848 c-7 -24 -14 -50 -18 -59 -5 -13 12 -21 90 -43 53 -15 98 -26 100 -24 4 5 34 112 32 114 -1 1 -12 4 -23 8 -19 6 -23 2 -28 -29 -5 -27 -11 -35 -24 -33 -18 4 -18 6 -7 49 5 21 2 27 -14 32 -21 5 -31 -9 -31 -44 0 -21 -28 -26 -36 -6 -3 8 0 25 5 39 8 21 7 28 -5 32 -26 10 -30 7 -41 -36z"/> <path d="M2628 1861 c-87 -26 -100 -37 -80 -68 6 -9 29 -6 97 14 50 15 92 28 94 29 6 5 -9 54 -17 53 -4 -1 -46 -13 -94 -28z"/> <path d="M2563 1729 c4 -13 7 -27 7 -31 0 -5 8 -8 19 -8 14 0 20 -10 24 -37 6 -34 1 -45 -25 -55 -3 -2 -4 -15 -1 -29 l5 -25 95 49 c94 48 95 50 89 80 -3 17 -8 32 -9 34 -2 1 -37 9 -78 17 -41 8 -87 18 -103 22 -27 6 -29 5 -23 -17z m162 -55 c12 -5 6 -11 -25 -25 -52 -24 -50 -24 -50 6 0 21 5 25 29 25 16 0 37 -3 46 -6z"/> <path d="M230 1682 c0 -6 -3 -17 -6 -26 -5 -12 3 -17 35 -22 39 -6 41 -8 41 -41 0 -35 0 -35 -39 -31 -35 3 -41 1 -46 -20 -3 -14 -4 -26 -3 -28 6 -6 193 -22 201 -17 4 2 7 15 7 29 0 21 -4 24 -40 24 -40 0 -40 0 -40 40 l0 40 45 -7 45 -6 0 32 c0 30 -1 31 -47 31 -27 0 -72 3 -100 6 -35 5 -53 3 -53 -4z"/> <path d="M2590 1488 c0 -27 1 -27 67 -30 l68 -3 -70 -40 c-56 -32 -71 -46 -73 -67 -3 -29 -7 -28 151 -41 46 -4 47 -4 47 24 l0 29 -72 0 -73 1 35 17 c84 43 120 72 120 97 0 20 -5 25 -27 26 -16 0 -61 4 -100 8 l-73 7 0 -28z"/> <path d="M220 1381 c0 -39 4 -72 9 -75 18 -11 41 6 41 30 0 23 3 24 75 24 l75 0 0 29 0 29 -82 -5 c-79 -6 -81 -6 -76 15 5 18 2 22 -18 22 -23 0 -24 -3 -24 -69z"/> <path d="M373 1154 c-3 -8 -1 -26 6 -40 16 -36 14 -38 -15 -15 -28 22 -63 28 -65 11 -5 -32 -1 -35 41 -40 l45 -5 -33 -18 c-39 -21 -40 -52 -3 -52 19 0 27 8 36 35 l12 35 10 -35 c7 -28 14 -35 33 -35 38 0 37 31 -2 52 l-33 18 45 5 c32 4 46 10 48 23 5 25 -26 33 -58 13 -38 -22 -43 -20 -27 12 8 15 12 33 10 40 -7 17 -42 15 -50 -4z"/> <path d="M2583 1149 c-9 -9 -9 -19 3 -40 12 -25 12 -29 0 -29 -7 0 -19 7 -26 15 -14 17 -49 20 -51 5 -5 -32 -1 -35 41 -40 l45 -5 -33 -18 c-38 -21 -40 -50 -4 -55 14 -2 24 3 28 15 16 48 16 48 30 15 11 -26 20 -33 37 -30 35 5 33 34 -5 55 l-33 18 45 5 c42 5 46 8 42 40 -3 17 -32 11 -65 -12 -29 -21 -30 -21 -22 -2 22 50 -1 94 -32 63z"/> <path d="M494 846 c-43 -43 -47 -99 -9 -140 13 -14 28 -26 32 -26 11 1 48 29 42 32 -2 2 -13 8 -24 14 -30 16 -32 68 -3 88 12 9 30 16 39 16 20 0 49 -31 49 -54 0 -15 2 -15 24 -1 30 20 25 46 -16 80 -44 37 -91 34 -134 -9z"/> <path d="M2405 870 c-11 -4 -38 -27 -60 -49 -34 -35 -37 -43 -25 -54 8 -7 44 -37 79 -67 l63 -54 20 25 c35 44 58 84 58 102 0 31 -29 76 -60 92 -32 17 -46 18 -75 5z m62 -64 c24 -21 26 -27 18 -52 -14 -38 -24 -38 -70 2 l-40 34 24 20 c30 25 34 25 68 -4z"/> <path d="M612 707 c-73 -73 -73 -73 -52 -92 20 -18 21 -18 50 10 l30 29 25 -24 25 -24 -30 -31 -30 -31 21 -20 21 -19 69 75 c64 70 67 75 52 92 -16 18 -18 17 -44 -8 -27 -26 -28 -26 -53 -8 -33 24 -32 38 2 63 l27 20 -20 20 -21 21 -72 -73z"/> <path d="M2230 693 c-22 -20 -33 -40 -37 -70 -5 -39 -2 -46 30 -78 48 -48 95 -49 143 -1 28 28 34 42 34 76 0 90 -102 134 -170 73z m102 -40 c20 -18 24 -63 6 -81 -31 -31 -98 4 -98 51 0 46 55 64 92 30z"/> <path d="M781 572 c-22 -38 -41 -78 -41 -89 0 -25 50 -70 87 -79 35 -9 51 2 101 75 36 50 42 64 32 76 -21 25 -33 17 -74 -45 -40 -63 -54 -70 -80 -44 -18 17 -14 28 36 102 29 42 29 44 11 57 -10 8 -21 15 -24 15 -4 0 -25 -31 -48 -68z"/> <path d="M2034 546 c-99 -99 36 -237 141 -145 28 25 35 38 35 68 0 21 -6 45 -13 55 -12 16 -15 15 -59 -9 -42 -23 -46 -28 -35 -45 10 -18 14 -18 34 -5 28 18 33 19 33 2 0 -18 -43 -57 -62 -57 -22 0 -58 47 -58 76 0 26 42 60 60 49 11 -7 39 21 40 38 0 4 -18 7 -41 7 -33 0 -47 -6 -75 -34z"/> <path d="M952 448 c-32 -69 -39 -94 -30 -100 24 -15 36 -8 51 29 l15 37 7 -51 c5 -40 11 -53 31 -62 34 -15 34 -15 23 21 -14 51 -11 68 11 68 26 0 54 43 46 73 -3 15 -24 34 -55 50 -27 15 -50 27 -52 27 -2 0 -23 -41 -47 -92z m98 17 c10 -12 10 -18 0 -30 -26 -31 -59 -11 -40 25 13 24 23 25 40 5z"/> <path d="M1822 463 c-33 -11 -42 -19 -39 -32 3 -9 15 -50 27 -91 12 -41 24 -77 26 -79 2 -2 14 -1 28 3 25 6 25 7 11 46 l-14 40 32 8 c24 7 31 13 29 28 -5 26 -7 27 -32 14 -25 -13 -50 -7 -50 14 0 8 15 17 36 20 26 5 34 11 30 22 -3 9 -6 18 -6 20 0 8 -36 2 -78 -13z"/> <path d="M1185 453 c-30 -7 -63 -42 -75 -79 -16 -47 8 -100 54 -119 51 -21 63 -19 75 15 9 29 9 30 -14 24 -57 -14 -89 52 -45 96 25 25 31 25 63 0 l25 -20 6 23 c3 12 6 26 6 30 0 7 -64 39 -72 36 -2 -1 -12 -3 -23 -6z"/> <path d="M1292 341 c-16 -115 -16 -111 13 -111 21 0 26 6 31 41 7 39 8 41 37 35 16 -3 33 -6 37 -6 4 0 4 -17 -1 -37 -8 -39 0 -53 32 -53 12 0 19 22 30 99 14 98 14 100 -6 105 -31 9 -32 8 -39 -34 -5 -33 -10 -40 -29 -40 -39 0 -50 14 -43 54 7 35 6 36 -22 36 -28 0 -28 0 -40 -89z"/> <path d="M1609 401 c-57 -57 -31 -158 45 -177 54 -13 120 25 131 76 23 104 -102 175 -176 101z m115 -44 c19 -26 19 -30 5 -55 -17 -32 -59 -40 -83 -17 -24 24 -20 71 7 90 29 20 45 16 71 -18z"/> </g> </svg> 